<svg width="24" height="24" viewBox="0 0 24 24" fill="none" xmlns="http://www.w3.org/2000/svg">
<path d="M4.26472 20.4853C2.01428 18.2348 0.75 15.1826 0.75 12C0.75 8.81738 2.01428 5.76514 4.26472 3.5147C6.51515 1.26426 9.5674 -1.8122e-05 12.75 -1.836e-05C15.9326 -1.8598e-05 18.9848 1.26426 21.2353 3.5147L4.26472 20.4853Z" fill="#FFCC00"/>
<path d="M10.0984 21.0157C11.5049 22.4222 13.4405 23.1844 15.4793 23.1347C17.5182 23.085 19.4933 22.2273 20.9701 20.7505C22.447 19.2736 23.3046 17.2985 23.3543 15.2597C23.4041 13.2208 22.6418 11.2852 21.2353 9.87872L10.0984 21.0157Z" fill="#FFCC00"/>
</svg>
