<svg width="200" height="200" viewBox="0 0 200 200" fill="none" xmlns="http://www.w3.org/2000/svg">
<g clip-path="url(#clip0_5_123)">
<path d="M50 50V51H51V50H50ZM49 -50V50H51V-50H49ZM50 49H-50V51H50V49Z" fill="#222222"/>
<path d="M150 50V51H151V50H150ZM149 -50V50H151V-50H149ZM150 49H50V51H150V49Z" fill="#222222"/>
<path d="M250 50V51H251V50H250ZM249 -50V50H251V-50H249ZM250 49H150V51H250V49Z" fill="#222222"/>
<path d="M50 150V151H51V150H50ZM49 50V150H51V50H49ZM50 149H-50V151H50V149Z" fill="#222222"/>
<path d="M150 150V151H151V150H150ZM149 50V150H151V50H149ZM150 149H50V151H150V149Z" fill="#222222"/>
<path d="M250 150V151H251V150H250ZM249 50V150H251V50H249ZM250 149H150V151H250V149Z" fill="#222222"/>
<path d="M50 150V149H51V150H50ZM49 250V150H51V250H49ZM50 151H-50V149H50V151Z" fill="#222222"/>
<path d="M150 150V149H151V150H150ZM149 250V150H151V250H149ZM150 151H50V149H150V151Z" fill="#222222"/>
<path d="M250 150V149H251V150H250ZM249 250V150H251V250H249ZM250 151H150V149H250V151Z" fill="#222222"/>
</g>
<defs>
<clipPath id="clip0_5_123">
<rect width="200" height="200" fill="white"/>
</clipPath>
</defs>
</svg>
